/* XPM */
static char *emblem_favorite[] = {
/* columns rows colors chars-per-pixel */
"48 48 168 2 ",
"   c #0F1A1F",
".  c #131212",
"X  c #151718",
"o  c #12181B",
"O  c #131F25",
"+  c #0E232D",
"@  c #11212A",
"#  c #112630",
"$  c #162A35",
"%  c #182D37",
"&  c #1A2E39",
"*  c #1D313B",
"=  c #20333D",
"-  c #6C0000",
";  c #740000",
":  c #7C0000",
">  c #711010",
",  c #7E2020",
"<  c #223640",
"1  c #263A44",
"2  c #2A3D47",
"3  c #2C3F48",
"4  c #2D404A",
"5  c #32454E",
"6  c #344751",
"7  c #374952",
"8  c #3B4C55",
"9  c #3F515A",
"0  c #42545C",
"q  c #475861",
"w  c #4D5F67",
"e  c #4F6068",
"r  c #54656D",
"t  c #5C6C74",
"y  c #63737B",
"u  c #68767C",
"i  c #840000",
"p  c #8C0000",
"a  c #940000",
"s  c #9B0000",
"d  c #821010",
"f  c #8D1010",
"g  c #901010",
"h  c #A30000",
"j  c #AB0000",
"k  c #B30100",
"l  c #BA0500",
"z  c #BD0A00",
"x  c #822020",
"c  c #843030",
"v  c #A32020",
"b  c #C10E00",
"n  c #C51300",
"m  c #C81700",
"M  c #CC1B00",
"N  c #C41D10",
"B  c #CF2000",
"V  c #D32400",
"C  c #D72800",
"Z  c #DA2C00",
"A  c #DE3100",
"S  c #E23500",
"D  c #E53A00",
"F  c #E93E00",
"G  c #C33130",
"H  c #ED4300",
"J  c #F04700",
"K  c #F44B00",
"L  c #F75000",
"P  c #FB5400",
"I  c #FF5900",
"U  c #E44310",
"Y  c #FF6310",
"T  c #EF5B20",
"R  c #F36020",
"E  c #F46A30",
"W  c #974040",
"Q  c #AE6060",
"!  c #B26060",
"~  c #B96060",
"^  c #AC7070",
"/  c #B47070",
"(  c #CD5150",
")  c #E16950",
"_  c #F07B50",
"`  c #CF7070",
"'  c #FF8240",
"]  c #F28760",
"[  c #FF9760",
"{  c #FFA170",
"}  c #6C7C83",
"|  c #738086",
" . c #75838A",
".. c #7B878D",
"X. c #78888E",
"o. c #7D8B91",
"O. c #818E95",
"+. c #859197",
"@. c #849298",
"#. c #88969C",
"$. c #8B989F",
"%. c #B38080",
"&. c #B88080",
"*. c #8E9BA1",
"=. c #929EA3",
"-. c #93A1A6",
";. c #96A4A9",
":. c #9AA6AB",
">. c #9CA9AE",
",. c #9EABB0",
"<. c #A1AAAE",
"1. c #A4ADB1",
"2. c #A6B0B6",
"3. c #A9B2B7",
"4. c #ACB4B9",
"5. c #AFB8BC",
"6. c #B1BABE",
"7. c #C68080",
"8. c #C38F8F",
"9. c #FFAC80",
"0. c #F9AF8F",
"q. c #FFB68F",
"w. c #E9A79F",
"e. c #EDAC9F",
"r. c #FCBD9F",
"t. c #DBAFAF",
"y. c #DABFBF",
"u. c #EDB6AF",
"i. c #F4BDAF",
"p. c #E7BFBF",
"a. c #FAC5AF",
"s. c #FFCBAF",
"d. c #EEC1BF",
"f. c #F3C7BF",
"g. c #FFD6BF",
"h. c #B3BDC0",
"j. c #BDC4C7",
"k. c #C3C9CC",
"l. c #CACFD2",
"z. c #CCD2D5",
"x. c #CFD5D8",
"c. c #D2D6D8",
"v. c #D5D9DB",
"b. c #E3CFCF",
"n. c #ECCFCF",
"m. c #F2D1CF",
"M. c #FDDDCF",
"N. c #EEDFDF",
"B. c #F4DFDF",
"V. c #FFE0CF",
"C. c #FCE6DF",
"Z. c #FFEADF",
"A. c #D9DEE0",
"S. c #DEE2E3",
"D. c #E2E6E7",
"F. c #E4E7E8",
"G. c #E6E9EA",
"H. c #EAEDEE",
"J. c #F7EFEF",
"K. c #FAEFEF",
"L. c #FFF5EF",
"P. c #EDEFF0",
"I. c #EFF0F1",
"U. c #F3F4F5",
"Y. c #F6F7F8",
"T. c #F7F8F8",
"R. c #FEFFFF",
"E. c None",
/* pixels */
"E.E.E.E.E.E.E.E.E.E.E.E.E.E.E.E.E.E.E.E.E.E.E.E.E.E.E.E.E.E.E.E.E.E.E.E.E.E.E.E.E.E.E.E.E.E.E.E.",
"E.E.E.E.E.E.E.E.E.E.E.E.E.E.E.E.E.E.E.E.E.E.E.E.E.E.E.E.E.E.E.E.E.E.E.E.E.E.E.E.E.E.E.E.E.E.E.E.",
"E.E.E.E.E.E.E.E.E.*.*.-.;.:.>.,.,.E.E.E.E.E.E.E.E.E.E.E.E.E.E.E.E.E.E.E.E.E.E.E.E.E.E.E.E.E.E.E.",
"E.E.E.E.E.E.E.O.@.*.6.k.S.x.z.h.>.,.,.E.E.E.E.E.E.E.E.E.E.E.E.E.E.E.E.E.E.E.E.E.E.E.E.E.E.E.E.E.",
"E.E.E.E.E.E.X.o.6.S.H.H.U.U.T.R.U.z.>.,.,.E.E.E.E.E.E.E.E.E.E.E.E.E.E.E.E.E.E.E.E.E.E.E.E.E.E.E.",
"E.E.E.E.E.} +.x.T.R.R.R.R.Y.U.Y.T.R.P.2.>.,.E.E.E.E.E.E.E.E.E.E.E.E.E.E.E.E.E.E.E.E.E.E.E.E.E.E.",
"E.E.E.E.y 1.U.R.R.R.R.R.R.R.R.T.U.U.T.T.>.;.E.E.E.E.E.E.E.E.E.E.E.E.E.E.E.E.E.E.E.E.E.E.E.E.E.E.",
"E.E.E.t >.R.R.R.R.R.R.R.R.R.R.R.R.I.U.U.G.-.;.;.>.,.,.,.,.,.E.E.E.E.E.E.E.E.E.E.E.E.E.E.E.E.E.E.",
"E.E.r O.R.R.R.f.) Z A U _ a.R.R.R.T.H.H.U.j.z.F.G.G.G.v.5.,.,.,.E.E.E.E.E.E.E.E.E.E.E.E.E.E.E.E.",
"E.E.e v.R.R.w.M B C Z S D H E M.R.R.T.F.H.U.U.T.T.R.R.R.R.G.h.,.,.,.E.E.E.E.E.E.E.E.E.E.E.E.E.E.",
"E.0 } R.R.d.b n M B C Z S D H J i.R.R.T.R.R.R.R.R.R.R.R.R.R.R.x.,.,.,.E.E.E.E.E.E.E.E.E.E.E.E.E.",
"E.0 <.R.R.( l b n M V C Z S D H K M.R.R.R.R.R.R.R.R.R.R.R.R.R.R.S.>.,.,.E.E.E.E.E.E.E.E.E.E.E.E.",
"E.8 k.R.R.j k l b n M V C Z S F H R R.R.R.V.g.g.R.R.R.R.R.R.U.R.R.A.:.,.,.E.E.E.E.E.E.E.E.E.E.E.",
"E.7 x.R.B.j k k z b m M V Z A S F H 0.L.' I I I Y [ Z.R.R.R.T.U.Y.R.z.;.>.E.E.E.E.E.E.E.E.E.E.E.",
"E.5 z.R.p.h j k k z b n M V Z Z S F T E L I I I I I I 9.R.R.R.T.I.U.T.2.-.;.E.E.E.E.E.E.E.E.E.E.",
"E.4 l.R.n.s h j k k z n m M V C A D F H K L I I I I I I [ R.R.R.U.H.U.A.*.-.-.E.E.E.E.E.E.E.E.E.",
"E.1 l.R.R.a h h j k l z n n M V Z A S F J K L I I I I I I [ R.R.R.F.G.H.1.*.*.E.E.E.E.E.E.E.E.E.",
"E.= =.R.R.v s h h j k l z n M M V Z S D F J K P I I I I I I q.R.R.U.S.F.z.+.#.E.E.E.E.E.E.E.E.E.",
"E.* | R.R.~ a s h h j k l z n M M C Z A S H J K L I I I I I Y L.R.R.S.A.S.$.+.@.E.E.E.E.E.E.E.E.",
"E.& 7 R.R.t.p a s h h j k l z n M M C Z S D H J L P I I I I I [ R.R.G.c.v.>.o.o.E.E.E.E.E.E.E.E.",
"E.E.% v.R.R.g p a s h j j k l b n M M C Z S D F K K P I I I I Y L.R.U.z.x.2. .X.E.E.E.E.E.E.E.E.",
"E.E.# ..R.R.! p p a s h j j k l b n M V C Z S F H K L I I I I I s.R.R.k.k.h.} | E.E.E.E.E.E.E.E.",
"E.E.# = R.R.N.i p p a s h j j k l b n M V C Z S D H K K I I I I { R.R.z.j.3.} } E.E.E.E.E.E.E.E.",
"E.E.E.+ 1.R.R.Q i p a a s h j k k l b m M B C Z S D H K K I I I ' R.R.k.h.1.u y E.E.E.E.E.E.E.E.",
"E.E.E.+ 3 R.R.F.i i p a a s h j k k l b n M V C A S F H K L I I ' R.R.v.4.:.t y E.E.E.E.E.E.E.E.",
"E.E.E.E.+ 1.R.R./ : i p a s s h j k k z n m M V C A S F H K L I ' R.R.j.1.o.t t E.E.E.E.E.E.E.E.",
"E.E.E.E.+ 3 R.R.J.d : i p a a s h j j l z b m M V C A S F H K L { R.R.6.:.} r r E.E.E.E.E.E.E.E.",
"E.E.E.E.E.@ =.R.R.8.: i i p a s h h j k l z n n M C Z A S H J K r.R.R.>.=.e w E.E.E.E.E.E.E.E.E.",
"E.E.E.E.E.+ * U.R.R.W : i i p a s s h j k l z n M M V Z S D F H L.R.I.+.| q q E.E.E.E.E.E.E.E.E.",
"E.E.E.E.E.E.+ u R.R.b.; : i p p a s s j j k l z n M M C Z A D ] R.R.k.o.w 9 0 E.E.E.E.E.E.E.E.E.",
"E.E.E.E.E.E.E.+ k.R.R.&.; : i i a a s h h j k l z n M M C Z U C.R.R.o.y 7 8 E.E.E.E.E.E.E.E.E.E.",
"E.E.E.E.E.E.E.+ 8 R.R.R.x ; : i i p a s h j j k l z n M M C i.R.R.k.y 6 5 6 E.E.E.E.E.E.E.E.E.E.",
"E.E.E.E.E.E.E.E.+ +.R.R.y.; ; : i p p a s h h j l l b n M e.R.R.U.} 6 2 4 E.E.E.E.E.E.E.E.E.E.E.",
"E.E.E.E.E.E.E.E.+ + c.R.R.^ ; ; : i p p s s h j j k l N u.R.R.R.+.3 < < E.E.E.E.E.E.E.E.E.E.E.E.",
"E.E.E.E.E.E.E.E.E.+ 8 R.R.J., ; ; : i p p a s h j k G m.R.R.R.o.* * * E.E.E.E.E.E.E.E.E.E.E.E.E.",
"E.E.E.E.E.E.E.E.E.E.+ +.R.R.b.- ; : : i p a s s h ` K.R.R.R. .% $ & E.E.E.E.E.E.E.E.E.E.E.E.E.E.",
"E.E.E.E.E.E.E.E.E.E.+ + c.R.R.%.- ; ; : i p a v p.R.R.R.U.0 @ # # E.E.E.E.E.E.E.E.E.E.E.E.E.E.E.",
"E.E.E.E.E.E.E.E.E.E.E.+ 8 R.R.R.c - ; : i f 7.R.R.R.R.k.& + + E.E.E.E.E.E.E.E.E.E.E.E.E.E.E.E.E.",
"E.E.E.E.E.E.E.E.E.E.E.E.+  .R.R.N.> - ; Q J.R.R.R.U.| + + + E.E.E.E.E.E.E.E.E.E.E.E.E.E.E.E.E.E.",
"E.E.E.E.E.E.E.E.E.E.E.E.@ @ 6.R.R.b.%.N.R.R.R.R.1.4 + + O E.E.E.E.E.E.E.E.E.E.E.E.E.E.E.E.E.E.E.",
"E.E.E.E.E.E.E.E.E.E.E.E.E.@ * v.R.R.R.R.R.R.1.4 + + + X E.E.E.E.E.E.E.E.E.E.E.E.E.E.E.E.E.E.E.E.",
"E.E.E.E.E.E.E.E.E.E.E.E.E.E.+ * c.R.R.R.1.3 + + + X . E.E.E.E.E.E.E.E.E.E.E.E.E.E.E.E.E.E.E.E.E.",
"E.E.E.E.E.E.E.E.E.E.E.E.E.E.  + * +.u * + + +   . . E.E.E.E.E.E.E.E.E.E.E.E.E.E.E.E.E.E.E.E.E.E.",
"E.E.E.E.E.E.E.E.E.E.E.E.E.E.E.E.+ + + + + o E.E.E.E.E.E.E.E.E.E.E.E.E.E.E.E.E.E.E.E.E.E.E.E.E.E.",
"E.E.E.E.E.E.E.E.E.E.E.E.E.E.E.E.E.E.E.E.E.E.E.E.E.E.E.E.E.E.E.E.E.E.E.E.E.E.E.E.E.E.E.E.E.E.E.E.",
"E.E.E.E.E.E.E.E.E.E.E.E.E.E.E.E.E.E.E.E.E.E.E.E.E.E.E.E.E.E.E.E.E.E.E.E.E.E.E.E.E.E.E.E.E.E.E.E.",
"E.E.E.E.E.E.E.E.E.E.E.E.E.E.E.E.E.E.E.E.E.E.E.E.E.E.E.E.E.E.E.E.E.E.E.E.E.E.E.E.E.E.E.E.E.E.E.E.",
"E.E.E.E.E.E.E.E.E.E.E.E.E.E.E.E.E.E.E.E.E.E.E.E.E.E.E.E.E.E.E.E.E.E.E.E.E.E.E.E.E.E.E.E.E.E.E.E."
};
